<?xml version="1.0" standalone="no"?>
<!DOCTYPE svg PUBLIC "-//W3C//DTD SVG 20010904//EN"
 "http://www.w3.org/TR/2001/REC-SVG-20010904/DTD/svg10.dtd">
<svg version="1.0" xmlns="http://www.w3.org/2000/svg"
 width="1024.000000pt" height="1536.000000pt" viewBox="0 0 1024.000000 1536.000000"
 preserveAspectRatio="xMidYMid meet">

<g transform="translate(0.000000,1536.000000) scale(0.100000,-0.100000)"
fill="#000000" stroke="none">
<path d="M4520 13984 c-385 -29 -896 -157 -1170 -294 -134 -67 -290 -168 -410
-265 -47 -38 -123 -100 -170 -138 -47 -38 -116 -87 -155 -109 -383 -224 -692
-498 -867 -768 -154 -236 -226 -456 -234 -709 -4 -117 -6 -131 -45 -234 -86
-228 -128 -414 -154 -686 -35 -367 -5 -717 87 -996 16 -49 62 -157 103 -240
50 -104 78 -175 90 -230 20 -93 63 -201 105 -264 l29 -45 -48 -27 c-110 -63
-177 -203 -202 -423 -23 -202 16 -415 117 -639 32 -72 89 -236 140 -402 134
-437 190 -574 296 -717 90 -121 229 -212 385 -253 83 -22 89 -27 97 -70 9 -44
94 -296 134 -397 49 -121 114 -255 172 -353 l53 -90 18 -230 c29 -372 42 -790
37 -1189 l-6 -369 -38 -34 c-63 -54 -222 -157 -321 -206 -81 -41 -106 -48
-225 -66 -170 -25 -316 -77 -437 -156 -20 -13 -130 -54 -246 -90 -353 -112
-796 -272 -1280 -463 -145 -57 -150 -60 -150 -88 0 -45 34 -42 206 22 448 164
1319 466 1327 460 1 -2 -7 -29 -19 -62 -45 -129 -36 -256 32 -427 32 -78 54
-102 84 -91 22 9 16 49 -21 164 -22 70 -27 104 -28 190 -1 100 1 109 32 172
52 107 152 182 317 241 39 13 87 27 108 31 l39 7 -30 -43 c-52 -77 -72 -147
-72 -256 0 -129 24 -214 105 -377 297 -594 1006 -1128 1817 -1370 183 -55 439
-108 638 -132 180 -21 638 -24 810 -4 810 91 1516 406 2029 906 350 341 541
681 541 964 0 104 -18 171 -64 240 -39 58 -37 59 58 35 176 -45 328 -159 397
-299 33 -67 34 -73 34 -190 0 -126 -14 -192 -71 -327 -36 -86 -28 -130 21
-111 41 15 118 228 135 371 15 122 -8 257 -57 331 -15 23 -14 24 3 17 11 -4
125 -44 254 -88 129 -44 395 -139 590 -210 608 -222 566 -208 585 -194 10 7
15 22 13 35 -2 20 -27 33 -163 87 -302 122 -751 287 -1073 395 -270 90 -334
115 -391 154 -130 86 -234 119 -428 134 -100 8 -120 13 -185 46 -69 36 -210
128 -271 179 -27 22 -29 30 -43 157 -29 278 -36 503 -32 969 4 313 11 538 23
690 l18 225 62 120 c77 146 163 364 201 503 l27 103 101 51 c237 118 381 269
461 483 35 91 115 420 149 610 30 165 43 225 81 360 58 209 80 521 51 727 -25
178 -57 258 -136 342 l-48 51 34 77 c19 42 41 105 50 140 9 35 29 79 46 100
60 76 186 379 247 593 67 238 97 523 88 834 -14 484 -129 893 -339 1208 -26
40 -48 75 -48 78 0 3 8 5 19 5 29 0 46 26 33 54 -13 30 -282 352 -414 497
-380 415 -795 681 -1193 765 -108 22 -300 29 -410 15 -172 -23 -376 -108 -476
-198 l-38 -34 -34 73 c-72 156 -225 318 -396 422 -159 96 -367 167 -586 201
-99 16 -400 27 -505 19z m587 -118 c266 -56 479 -164 642 -325 125 -122 211
-270 211 -361 0 -40 18 -60 55 -60 9 0 51 35 93 79 92 94 193 149 341 188 176
45 418 42 605 -9 110 -29 374 -165 547 -280 170 -114 313 -235 422 -356 70
-77 297 -344 337 -397 15 -19 14 -19 -12 -2 -64 39 -74 45 -100 51 -15 3 -29
3 -31 -1 -3 -5 22 -40 55 -78 247 -286 338 -443 432 -747 77 -247 110 -483
110 -798 0 -234 -12 -369 -50 -558 -34 -173 -128 -452 -193 -580 l-19 -36 -5
29 c-3 17 -9 57 -12 89 -10 85 -20 108 -48 104 -22 -3 -22 -4 -23 -193 -1
-214 -15 -293 -76 -408 l-33 -61 -62 -11 c-35 -7 -63 -10 -63 -9 0 2 7 33 16
71 21 85 22 290 3 348 -14 41 -41 57 -62 36 -7 -7 -10 -58 -8 -143 3 -160 -10
-233 -80 -438 -27 -80 -60 -194 -74 -254 -13 -59 -26 -110 -28 -112 -2 -2 -7
87 -10 199 -18 558 -87 893 -235 1143 -39 65 -51 79 -72 79 -39 0 -36 -30 16
-140 64 -137 119 -309 144 -445 46 -260 52 -374 57 -1010 2 -333 6 -615 8
-626 6 -27 28 -36 49 -21 11 8 21 47 31 126 8 63 17 116 20 119 2 3 19 -26 37
-64 28 -59 32 -80 33 -149 0 -89 -16 -135 -68 -187 -24 -24 -36 -29 -59 -24
-52 10 -62 -12 -87 -200 -50 -370 -116 -718 -182 -960 -98 -359 -235 -636
-487 -984 -236 -327 -586 -679 -897 -902 -248 -178 -540 -310 -810 -368 -125
-27 -409 -38 -539 -21 -129 17 -312 66 -439 117 -469 188 -1006 626 -1404
1144 -215 280 -392 646 -498 1030 -142 514 -267 1259 -282 1680 -8 241 20 720
67 1123 11 93 20 170 20 171 0 2 41 27 90 56 109 64 253 206 248 243 -6 44
-44 33 -115 -33 -87 -82 -134 -116 -217 -156 -97 -47 -199 -68 -301 -62 -102
7 -161 32 -231 98 -55 52 -78 61 -88 35 -13 -36 37 -106 112 -154 75 -48 157
-64 295 -59 64 3 117 5 117 4 0 -1 -7 -55 -15 -121 -8 -66 -19 -163 -25 -215
-16 -138 -40 -499 -41 -615 l-1 -100 -14 50 c-8 28 -53 147 -99 265 -101 254
-122 334 -132 495 -8 113 -9 120 -30 123 -35 5 -47 -58 -39 -210 l7 -127 -48
14 c-104 31 -193 197 -234 437 -7 47 -29 103 -68 180 -125 247 -191 538 -190
833 l0 120 32 -64 c52 -104 143 -183 160 -138 3 7 -17 45 -44 85 -133 198
-153 475 -57 786 l22 71 8 -45 c29 -158 51 -210 90 -210 27 0 30 19 13 75 -37
117 -30 332 17 485 22 72 117 280 128 280 4 0 10 -18 14 -41 7 -42 47 -94 69
-86 13 4 13 27 2 128 -13 112 33 269 117 404 54 84 111 155 231 283 106 114
149 174 134 189 -6 5 -106 -59 -162 -104 -171 -140 -313 -338 -373 -520 -24
-73 -26 -76 -110 -221 -36 -62 -67 -110 -70 -108 -16 17 69 289 126 401 72
144 207 319 355 462 167 160 377 312 641 463 165 95 496 249 731 340 33 13 66
28 73 33 17 13 15 56 -3 63 -14 6 -206 -61 -349 -123 -43 -18 -80 -32 -82 -30
-8 8 208 142 301 187 223 108 658 226 955 259 52 6 109 13 125 15 17 2 136 3
265 1 206 -3 250 -7 357 -29z m3299 -4830 c76 -51 120 -168 137 -368 17 -214
-19 -518 -84 -704 -11 -33 -27 -108 -35 -169 -28 -207 -108 -552 -165 -710
-67 -186 -200 -330 -398 -429 l-54 -28 6 24 c38 157 115 627 132 806 l7 72 52
35 c58 38 109 103 131 166 42 119 -8 338 -96 418 l-29 27 40 247 c74 459 122
595 225 627 40 12 100 6 131 -14z m-6511 -125 c22 -10 50 -29 62 -43 27 -28
152 -331 182 -438 48 -172 111 -447 111 -484 0 -46 36 -325 75 -580 31 -204
85 -481 124 -633 l29 -113 -27 6 c-119 29 -259 119 -339 220 -102 129 -170
287 -277 648 -85 289 -106 349 -160 456 -78 156 -104 262 -112 455 -6 160 3
219 47 338 26 70 86 148 131 170 45 22 104 21 154 -2z m5473 -3472 c-17 -215
-17 -1146 0 -1349 24 -279 56 -509 84 -600 20 -66 89 -115 104 -75 4 8 -1 45
-9 83 -9 37 -19 82 -22 99 l-7 33 109 -76 c100 -71 132 -89 253 -140 58 -25
106 -67 133 -118 19 -35 22 -57 22 -151 0 -95 -4 -122 -29 -195 -79 -231 -265
-504 -493 -720 -513 -488 -1199 -788 -1978 -865 -209 -21 -611 -16 -805 10
-408 54 -759 159 -1115 335 -310 154 -543 315 -767 529 -206 197 -349 382
-449 578 -64 125 -89 207 -96 313 -12 176 40 258 215 341 121 59 228 121 325
191 l68 49 -3 -133 -3 -133 32 -3 c23 -2 34 2 42 15 16 32 31 232 43 607 11
367 2 843 -23 1203 -6 84 -9 159 -7 167 2 9 36 -25 85 -87 449 -557 1011 -985
1520 -1156 313 -105 673 -120 981 -41 540 137 1086 531 1563 1128 55 68 129
168 167 222 37 54 68 97 70 96 1 -2 -3 -72 -10 -157z"/>
<path d="M6516 13305 c-86 -22 -176 -70 -241 -127 -48 -44 -56 -55 -53 -82 5
-47 31 -44 90 9 108 97 237 138 418 133 l115 -3 0 25 c0 38 -43 53 -165 57
-69 2 -125 -3 -164 -12z"/>
<path d="M5567 12830 c-114 -20 -264 -84 -380 -162 -73 -50 -169 -132 -372
-322 -488 -454 -775 -645 -1090 -726 -75 -19 -97 -38 -79 -67 39 -62 311 30
578 195 197 122 406 296 776 646 256 243 399 326 608 354 159 22 276 -18 386
-132 188 -194 243 -456 155 -745 -21 -70 -18 -96 11 -104 34 -9 58 21 87 106
24 74 27 96 27 227 1 167 -17 246 -83 378 -139 276 -354 397 -624 352z"/>
<path d="M5620 12297 c-86 -36 -167 -97 -266 -198 -107 -111 -180 -209 -376
-500 -80 -119 -182 -265 -227 -325 -58 -77 -81 -116 -79 -134 3 -29 -93 -222
-190 -384 -116 -194 -232 -330 -362 -422 -46 -32 -52 -35 -35 -13 143 184 204
276 270 401 20 39 26 61 21 81 -8 35 -31 34 -52 0 -73 -120 -197 -295 -267
-378 -157 -188 -281 -289 -454 -372 -62 -29 -115 -58 -118 -64 -4 -5 -1 -17 6
-25 36 -43 219 34 390 164 39 29 79 52 93 52 43 0 199 87 278 154 89 76 155
152 239 278 70 104 194 339 239 452 22 57 72 139 171 280 77 111 167 241 202
291 232 335 378 494 516 563 92 46 149 54 201 27 64 -33 108 -188 96 -332 -6
-80 -2 -99 25 -114 14 -7 23 -5 39 11 17 17 20 33 20 123 0 185 -44 312 -129
372 -37 26 -53 30 -119 33 -62 2 -88 -2 -132 -21z"/>
<path d="M6422 12029 c-70 -12 -92 -25 -92 -53 0 -33 21 -38 98 -25 133 23
305 -13 435 -91 71 -43 93 -47 111 -18 8 14 5 23 -18 47 -37 38 -171 105 -255
126 -79 20 -209 27 -279 14z"/>
<path d="M5530 11971 c-104 -32 -202 -140 -450 -496 -46 -66 -122 -172 -169
-235 -89 -121 -108 -157 -98 -184 10 -25 50 -19 79 12 31 34 169 220 278 377
205 293 319 427 378 442 32 8 52 -5 77 -50 23 -42 49 -55 71 -36 31 26 -11
130 -64 158 -28 14 -75 20 -102 12z"/>
<path d="M6349 11810 c-23 -19 -23 -21 -7 -34 10 -7 49 -16 87 -19 201 -17
399 -174 671 -532 293 -386 507 -585 719 -671 73 -30 115 -29 119 2 3 18 -11
28 -81 62 -194 95 -384 276 -664 637 -246 317 -372 440 -538 523 -108 54 -261
70 -306 32z"/>
<path d="M7490 10655 c-21 -26 52 -206 148 -365 158 -262 437 -529 528 -506
44 11 29 42 -49 99 -188 139 -409 420 -539 685 -50 102 -64 116 -88 87z"/>
<path d="M3744 10562 c-7 -4 -46 -59 -89 -122 -42 -63 -102 -146 -132 -183
-144 -175 -414 -312 -686 -347 -66 -8 -176 -1 -228 15 -8 3 -23 -1 -33 -8 -28
-21 -6 -52 51 -71 175 -60 480 3 727 152 199 119 452 452 416 547 -11 28 -10
28 -26 17z"/>
<path d="M6473 9919 c-208 -20 -458 -90 -631 -178 -84 -43 -120 -93 -86 -122
14 -11 21 -10 48 6 56 34 140 72 175 80 l34 7 -23 -32 c-35 -49 -16 -55 86
-26 145 41 259 58 445 63 208 7 302 -8 411 -63 65 -33 98 -38 98 -15 0 19 -96
151 -152 209 l-57 59 -114 11 c-62 7 -122 11 -133 11 -10 -1 -56 -5 -101 -10z"/>
<path d="M6933 9923 c-32 -12 -11 -52 75 -139 48 -49 107 -118 131 -152 33
-49 47 -63 64 -60 63 9 -1 124 -151 271 -88 86 -95 90 -119 80z"/>
<path d="M3240 9855 c-9 -11 -16 -12 -30 -3 -19 12 -50 5 -50 -13 0 -6 9 -13
20 -16 11 -3 20 -8 20 -12 0 -4 -27 -33 -61 -66 -97 -96 -201 -231 -197 -257
7 -49 35 -29 146 99 61 70 133 150 161 178 52 50 61 71 39 93 -16 16 -33 15
-48 -3z"/>
<path d="M3492 9859 c-143 -18 -212 -62 -291 -183 -43 -66 -55 -126 -26 -126
9 0 51 18 93 39 123 62 174 72 378 78 207 6 339 -6 493 -43 121 -30 138 -24
90 30 -17 20 -29 39 -26 42 11 12 107 -28 162 -67 91 -66 120 -28 38 48 -98
90 -287 160 -495 183 -111 12 -323 11 -416 -1z"/>
<path d="M6230 9079 c-148 -29 -315 -144 -367 -254 -16 -33 -16 -39 -2 -63 11
-20 23 -27 44 -27 28 0 30 3 36 43 3 28 15 53 35 73 35 37 128 102 131 92 1
-5 7 -27 13 -51 14 -56 70 -116 125 -138 78 -29 186 -2 247 63 33 35 67 109
68 146 0 33 14 34 103 11 83 -21 137 -50 137 -73 0 -10 -21 -37 -47 -60 -43
-36 -45 -40 -24 -41 12 0 63 14 113 30 49 17 100 30 114 30 13 0 56 -16 95
-36 78 -39 112 -41 117 -8 4 29 -29 51 -181 124 -149 71 -272 114 -391 135
-95 16 -292 19 -366 4z"/>
<path d="M3750 9073 c-166 -12 -333 -66 -545 -176 -141 -74 -160 -86 -163
-110 -5 -42 19 -43 111 -3 97 42 112 43 209 16 40 -11 83 -20 95 -20 21 0 18
5 -22 43 -25 24 -45 49 -45 55 0 25 107 71 198 87 42 7 42 7 42 -24 0 -38 39
-118 72 -147 94 -87 237 -85 320 3 31 33 58 91 58 127 l0 25 38 -21 c54 -32
150 -130 154 -159 2 -18 9 -24 27 -24 40 0 49 28 24 77 -49 101 -171 201 -280
230 -59 16 -212 27 -293 21z"/>
<path d="M4539 7822 c-197 -206 -253 -391 -171 -565 50 -107 153 -192 225
-185 50 5 43 37 -14 64 -97 46 -169 168 -169 284 0 109 69 239 204 387 70 76
84 113 42 113 -17 0 -50 -28 -117 -98z"/>
<path d="M5617 7743 c-14 -13 -6 -34 47 -112 101 -152 124 -302 60 -393 -17
-24 -56 -59 -89 -79 -62 -37 -72 -54 -44 -72 12 -7 30 -3 70 15 76 35 114 70
145 135 63 127 21 317 -103 471 -32 39 -68 54 -86 35z"/>
<path d="M5330 7458 c-50 -26 -113 -108 -108 -142 4 -31 43 -32 79 -1 30 24
33 25 50 9 10 -9 21 -26 25 -38 11 -36 36 -56 68 -56 42 0 72 23 86 66 21 64
-14 133 -84 165 -53 24 -63 24 -116 -3z"/>
<path d="M4714 7451 c-95 -58 -99 -176 -7 -209 40 -13 68 1 98 48 34 53 48 58
86 26 17 -15 37 -25 43 -23 37 12 -9 122 -67 158 -41 25 -112 25 -153 0z"/>
<path d="M4795 6521 c-27 -10 -153 -70 -280 -134 -314 -158 -348 -167 -403
-111 -13 13 -28 24 -35 24 -46 0 -90 -84 -64 -123 14 -22 15 -22 383 -25 203
-1 430 -7 504 -14 91 -7 195 -8 320 -2 102 5 302 9 445 9 176 0 285 4 336 14
43 7 96 10 120 7 97 -14 104 -13 107 17 4 36 -33 95 -64 103 -18 5 -32 0 -48
-15 -29 -27 -97 -28 -171 -2 -30 11 -127 61 -215 111 -285 163 -370 183 -505
119 -99 -47 -165 -46 -268 4 -86 42 -94 43 -162 18z m141 -93 c56 -31 65 -33
159 -33 87 1 107 4 158 28 66 31 115 34 184 11 62 -20 216 -98 323 -164 l85
-52 -190 7 c-137 4 -236 2 -356 -10 -135 -12 -190 -13 -290 -4 -68 6 -236 14
-372 18 l-248 6 195 98 c163 83 254 122 287 126 3 1 32 -14 65 -31z"/>
<path d="M4393 6013 c-27 -10 -13 -51 30 -88 110 -96 286 -170 473 -201 135
-22 391 -15 519 14 152 35 306 98 400 162 38 26 46 36 43 58 -4 39 -26 38
-104 -8 -259 -151 -607 -206 -903 -141 -153 34 -259 81 -373 168 -57 43 -63
46 -85 36z"/>
<path d="M8371 8793 c-46 -23 -153 -132 -181 -186 -44 -83 4 -107 66 -32 20
25 40 45 44 45 26 0 61 -194 58 -310 l-3 -75 30 0 c25 0 31 5 36 30 20 94 1
269 -42 379 l-21 51 26 20 c83 64 81 62 67 79 -17 20 -37 20 -80 -1z"/>
<path d="M8187 7449 c-32 -38 -80 -84 -107 -102 -50 -32 -65 -51 -54 -68 23
-38 138 33 225 138 46 56 54 103 17 103 -16 0 -41 -22 -81 -71z"/>
<path d="M1697 8774 c-14 -14 -7 -43 15 -58 l22 -16 -27 -57 c-14 -32 -32 -78
-38 -103 -26 -102 -2 -391 35 -428 15 -15 17 -15 32 0 15 15 15 26 4 115 -23
180 -3 355 49 422 l18 24 34 -21 c19 -11 45 -32 58 -46 32 -34 71 -35 71 -2 0
31 -87 111 -156 142 -58 27 -106 39 -117 28z"/>
<path d="M2100 8090 c-12 -17 -35 -67 -52 -113 -26 -69 -31 -97 -32 -177 -1
-82 3 -102 25 -150 45 -96 114 -160 173 -160 16 0 27 7 31 20 5 15 -8 34 -59
82 -52 51 -67 73 -80 117 -29 99 -16 203 40 325 21 45 23 60 14 71 -19 23 -36
18 -60 -15z"/>
<path d="M1931 7406 c-18 -21 -1 -46 61 -92 113 -84 218 -141 238 -129 6 4 10
17 10 30 0 19 -14 32 -70 65 -39 23 -100 63 -136 91 -69 52 -85 57 -103 35z"/>
</g>
</svg>
